<svg width="16" height="16" viewBox="0 0 16 16" fill="none" xmlns="http://www.w3.org/2000/svg">
<path d="M13.3333 7.32986H3.725L7.91667 3.13601C8.175 2.87754 8.175 2.45232 7.91667 2.19385C7.65833 1.93538 7.23333 1.93538 6.975 2.19385L2.58333 6.57947C2.20833 6.95466 2 7.46326 2 7.99687C2 8.53048 2.20833 9.03075 2.58333 9.41428L6.975 13.8082C7.10833 13.9416 7.275 14 7.45 14C7.61667 14 7.79167 13.9333 7.925 13.8082C8.18333 13.5498 8.18333 13.1245 7.925 12.8661L3.725 8.66389H13.3333C13.7 8.66389 14 8.36373 14 7.99687C14 7.63002 13.7 7.32986 13.3333 7.32986Z" fill="black"/>
</svg>
