<svg width="18" height="18" viewBox="0 0 18 18" fill="none" xmlns="http://www.w3.org/2000/svg">
<path d="M10.0565 9.00586L14.7749 4.28747C15.0657 3.99668 15.0657 3.51827 14.7749 3.22748C14.4841 2.93668 14.0057 2.93668 13.7149 3.22748L8.99648 7.94587L4.27809 3.2181C3.9873 2.9273 3.50889 2.9273 3.2181 3.2181C2.9273 3.50889 2.9273 3.9873 3.2181 4.27809L7.93649 9.00586L3.2181 13.7243C2.9273 14.015 2.9273 14.4935 3.2181 14.7842C3.36818 14.9343 3.55579 15 3.75278 15C3.94978 15 4.13739 14.925 4.28747 14.7842L8.99648 10.0659L13.7149 14.7842C13.865 14.9343 14.0526 15 14.2496 15C14.4466 15 14.6342 14.925 14.7843 14.7842C15.075 14.4935 15.075 14.015 14.7843 13.7243L10.0565 9.00586Z" fill="black"/>
</svg>
