<svg width="24" height="24" viewBox="0 0 24 24" fill="none" xmlns="http://www.w3.org/2000/svg">
<path d="M13.4086 12.0078L19.6998 5.71663C20.0876 5.3289 20.0876 4.69103 19.6998 4.3033C19.3121 3.91558 18.6742 3.91558 18.2865 4.3033L11.9953 10.5945L5.70412 4.2908C5.3164 3.90307 4.67852 3.90307 4.2908 4.2908C3.90307 4.67852 3.90307 5.3164 4.2908 5.70412L10.582 12.0078L4.2908 18.299C3.90307 18.6867 3.90307 19.3246 4.2908 19.7123C4.49091 19.9124 4.74106 20 5.00371 20C5.26637 20 5.51651 19.8999 5.71663 19.7123L11.9953 13.4211L18.2865 19.7123C18.4866 19.9124 18.7368 20 18.9994 20C19.2621 20 19.5122 19.8999 19.7123 19.7123C20.1001 19.3246 20.1001 18.6867 19.7123 18.299L13.4086 12.0078Z" fill="#6B6A66"/>
</svg>
