<svg width="24" height="24" viewBox="0 0 24 24" fill="none" xmlns="http://www.w3.org/2000/svg">
<path d="M23 3.5C23 2.125 21.875 1 20.5 1C19.8375 1 19.2125 1.25 18.75 1.725L7.75002 12.0625C6.23752 11.8375 4.62502 12.3 3.46252 13.4625C1.85002 15.075 2.01252 16.375 2.15002 17.5375C2.27502 18.6125 2.40002 19.625 1.17502 21.4375C0.962523 21.75 0.950023 22.15 1.12502 22.475C1.30002 22.8 1.63752 22.9875 2.00002 22.9875C2.01252 22.9875 2.02502 22.9875 2.02502 22.9875C2.66252 22.9625 8.32502 22.7375 10.525 20.525C11.475 19.5875 12 18.3375 12 17C12 16.75 11.975 16.5 11.95 16.25L22.325 5.2125C22.7625 4.75 23 4.1375 23 3.5ZM3.75002 20.85C4.36252 19.325 4.23752 18.1875 4.12502 17.3C4.01252 16.3 3.95002 15.8 4.87502 14.875C6.05002 13.7 7.95002 13.7 9.11252 14.875C9.67502 15.4375 9.98752 16.2 9.98752 17C9.98752 17.8 9.67502 18.55 9.11252 19.125C8.46252 19.775 7.00002 20.3375 5.01252 20.675C4.57502 20.75 4.15002 20.8125 3.75002 20.85ZM20.8625 3.8375L11.1375 14.1875C10.9625 13.925 10.7625 13.6875 10.5375 13.4625C10.3125 13.2375 10.0625 13.0375 9.81252 12.8625L20.125 3.1625L20.15 3.1375C20.2 3.0875 20.325 2.9875 20.5 2.9875C20.775 2.9875 21 3.2125 21 3.4875C21 3.625 20.95 3.75 20.8625 3.8375Z" fill="#6B6A66"/>
</svg>
