<svg width="24" height="24" viewBox="0 0 24 24" fill="none" xmlns="http://www.w3.org/2000/svg">
<path fill-rule="evenodd" clip-rule="evenodd" d="M1 12C1 18.0625 5.9375 23 12 23C18.0625 23 23 18.0625 23 12C23 5.9375 18.0625 1 12 1C5.9375 1 1 5.9375 1 12ZM3 12C3 7.0375 7.0375 3 12 3C16.9625 3 21 7.0375 21 12C21 16.9625 16.9625 21 12 21C7.0375 21 3 16.9625 3 12ZM15.5 12C16.325 12 17 11.325 17 10.5V9.5C17 8.675 16.325 8 15.5 8C14.675 8 14 8.675 14 9.5V10.5C14 11.325 14.675 12 15.5 12ZM10 10.5C10 11.325 9.325 12 8.5 12C7.675 12 7 11.325 7 10.5V9.5C7 8.675 7.675 8 8.5 8C9.325 8 10 8.675 10 9.5V10.5ZM8.39995 15.8C9.44996 16.5875 10.6875 17 12 17C13.3125 17 14.55 16.5875 15.6 15.8C16.0375 15.4625 16.1375 14.8375 15.8 14.4C15.4625 13.9625 14.8375 13.8625 14.4 14.2C13.7 14.725 12.875 15 12 15C11.125 15 10.3 14.725 9.59996 14.2C9.16246 13.875 8.53746 13.9625 8.19995 14.4C7.87495 14.8375 7.96245 15.4625 8.39995 15.8Z" fill="#6B6A66"/>
</svg>
