<svg width="24" height="24" viewBox="0 0 24 24" fill="none" xmlns="http://www.w3.org/2000/svg">
<path fill-rule="evenodd" clip-rule="evenodd" d="M17 2C19.1875 2 20.75 2.2 21.775 3.225C22.8 4.25 23 5.8125 23 8V16C23 18.1875 22.8 19.75 21.775 20.775C20.75 21.8 19.1875 22 17 22H7C4.8125 22 3.25 21.8 2.225 20.775C1.2 19.75 1 18.1875 1 16V8C1 5.8125 1.2 4.25 2.225 3.225C3.25 2.2 4.8125 2 7 2H17ZM20.35 19.35C20.8125 18.9 21 17.925 21 16V8C21 6.075 20.8 5.1125 20.35 4.65C19.9 4.1875 18.925 4 17 4H7C5.075 4 4.1125 4.2 3.65 4.65C3.1875 5.1 3 6.075 3 8V16C3 17.925 3.2 18.8875 3.65 19.35C4.1 19.8125 5.075 20 7 20H17C18.925 20 19.8875 19.8 20.35 19.35ZM11.5 9C11.5 8.45 11.95 8 12.5 8C13.05 8 13.5 8.45 13.5 9V15C13.5 15.55 13.05 16 12.5 16C11.95 16 11.5 15.55 11.5 15V9ZM17 10H17.5H18C18.55 10 19 9.55 19 9C19 8.45 18.55 8 18 8H17.5C16.575 8 15.9625 8 15.475 8.475C15 8.9625 15 9.575 15 10.5V15C15 15.55 15.45 16 16 16C16.55 16 17 15.55 17 15V13H18C18.55 13 19 12.55 19 12C19 11.45 18.55 11 18 11H17V10.5V10ZM7.5 10H7C7 10.15 7 10.3375 7.0125 10.5V13.5V14C7.3 14.0125 7.7 14.0125 8 14V13.5V13C8 12.45 8.45 12 9 12C9.55 12 10 12.45 10 13V13.5C10 14.4375 10 15.05 9.525 15.525C9.0375 16 8.4375 16 7.5 16C6.5625 16 5.95 16 5.475 15.525C5 15.0375 5 14.425 5 13.5V10.5C5 9.575 5 8.9625 5.475 8.475C5.9625 8 6.575 8 7.5 8H9C9.55 8 10 8.45 10 9C10 9.55 9.55 10 9 10H7.5Z" fill="#6B6A66"/>
</svg>
