<svg width="24" height="24" viewBox="0 0 24 24" fill="none" xmlns="http://www.w3.org/2000/svg">
<path fill-rule="evenodd" clip-rule="evenodd" d="M16 2C18.1875 2 19.75 2.2 20.775 3.225C21.8 4.25 22 5.8125 22 8V16C22 18.1875 21.8 19.75 20.775 20.775C19.75 21.8 18.1875 22 16 22H8C5.8125 22 4.25 21.8 3.225 20.775C2.2 19.75 2 18.1875 2 16V8C2 5.8125 2.2 4.25 3.225 3.225C4.25 2.2 5.8125 2 8 2H16ZM4.65 4.65C4.1875 5.1 4 6.075 4 8H3.9875V15.9875C3.9875 16.875 4.025 17.55 4.1125 18.075L8.8625 13.325C8.88372 13.3041 8.90471 13.2834 8.9255 13.2629C9.73763 12.4622 10.2318 11.975 10.9875 11.975C11.7625 11.975 12.2625 12.475 13.1125 13.325L14.0375 14.25L14.0375 14.25C14.3 14.5125 14.575 14.7875 14.75 14.9375C14.9375 14.775 15.2 14.5125 15.4625 14.25L20 9.7125V8C20 6.075 19.8 5.1125 19.35 4.65C18.9 4.1875 17.925 4 16 4H8C6.075 4 5.1125 4.2 4.65 4.65ZM16 20C17.925 20 18.8875 19.8125 19.35 19.35C19.8125 18.9 20 17.925 20.0125 16V12.55L16.8875 15.675C16.8663 15.6959 16.8453 15.7166 16.8245 15.7371C16.0124 16.5378 15.5182 17.025 14.7625 17.025C13.9875 17.025 13.4875 16.525 12.6375 15.675L11.7125 14.75L11.7125 14.75C11.45 14.4875 11.175 14.2125 11 14.0625C10.8125 14.225 10.55 14.4875 10.2875 14.75L5.3125 19.725C5.875 19.9125 6.725 20 8 20H16ZM10 8.5C10 9.32843 9.32843 10 8.5 10C7.67157 10 7 9.32843 7 8.5C7 7.67157 7.67157 7 8.5 7C9.32843 7 10 7.67157 10 8.5Z" fill="#6B6A66"/>
</svg>
