<svg width="24" height="24" viewBox="0 0 24 24" fill="none" xmlns="http://www.w3.org/2000/svg">
<path d="M6.5 2.00006C3.4625 2.00006 1 4.96256 1 8.00006C1 11.5001 2.4125 14.8251 5.0875 17.6251C7.1625 19.7876 9.5625 21.2001 11 21.7626L11.2875 21.8751C11.5125 21.9626 11.7625 22.0126 12.0125 22.0126C12.2625 22.0126 12.5 21.9626 12.7375 21.8751L13.025 21.7626C14.4625 21.2126 16.8625 19.7876 18.9375 17.6251C21.6125 14.8376 23.025 11.5001 23.025 8.00006C23.0375 5.00006 20.675 2.06256 17.675 2.00006C14.625 1.93756 13.1375 3.32506 12.125 6.60006C12.0875 6.71256 11.925 6.71256 11.8875 6.60006C10.8875 3.38756 9.425 2.00006 6.5 2.00006Z" fill="#FFA800"/>
</svg>
