<svg width="227" height="16" viewBox="0 0 227 16" fill="none" xmlns="http://www.w3.org/2000/svg">
<path d="M7.24687 6.15404C7.26246 6.64073 7.15539 7.1235 6.93557 7.55778C6.73996 7.92875 6.45453 8.24458 6.10545 8.47628C5.73554 8.71573 5.32537 8.88601 4.89485 8.97885C4.42947 9.08394 3.95377 9.13626 3.47672 9.13482H2.3353V12.7222H0.0351562V3.19058H3.5286C4.01717 3.18728 4.50453 3.23961 4.98132 3.34655C5.40108 3.43939 5.7999 3.60982 6.15733 3.84912C6.4917 4.08021 6.76477 4.38954 6.95287 4.75029C7.15489 5.19012 7.25538 5.66993 7.24687 6.15404ZM4.94673 6.17136C4.95267 5.97724 4.90478 5.78528 4.80838 5.6168C4.72278 5.47321 4.59631 5.35855 4.4452 5.28753C4.28513 5.19953 4.10834 5.14637 3.92637 5.13155C3.726 5.10227 3.52346 5.09067 3.32107 5.09689H2.318V7.34982H3.28648C3.49509 7.34973 3.70333 7.33234 3.90907 7.29782C4.09676 7.26324 4.27774 7.19889 4.4452 7.1072C4.59839 7.02305 4.7244 6.89678 4.80838 6.74326C4.90266 6.56767 4.9503 6.37073 4.94673 6.17136Z" fill="#222222"/>
<path d="M20.5462 7.95657C20.5514 8.66362 20.4162 9.36464 20.1485 10.0189C19.9059 10.6224 19.5386 11.1676 19.0706 11.6187C18.6026 12.0697 18.0446 12.4163 17.4333 12.6357C16.7694 12.8826 16.0661 13.0059 15.358 12.9996C14.6553 13.0075 13.9574 12.8841 13.2999 12.6357C12.6929 12.4017 12.1354 12.0548 11.657 11.6132C11.1921 11.1629 10.8268 10.6197 10.5847 10.0189C10.3171 9.36464 10.1818 8.66362 10.187 7.95657C10.17 7.24847 10.3057 6.54503 10.5847 5.89428C10.8292 5.30487 11.1945 4.7735 11.657 4.33456C12.13 3.89417 12.6896 3.5577 13.2999 3.34674C13.9607 3.11268 14.6571 2.99541 15.358 3.00014C16.0643 2.99686 16.7661 3.11407 17.4333 3.34674C18.0405 3.56445 18.5988 3.90015 19.0762 4.33456C19.5404 4.77206 19.9059 5.30382 20.1485 5.89428C20.4194 6.54751 20.5548 7.2492 20.5462 7.95657ZM18.0905 7.95657C18.0934 7.56001 18.0231 7.16632 17.8829 6.79544C17.7546 6.45864 17.5672 6.14757 17.3295 5.87695C16.9368 5.47734 16.4329 5.20569 15.8838 5.09749C15.3346 4.98928 14.7656 5.04954 14.2511 5.27039C13.9269 5.41548 13.6334 5.62136 13.3864 5.87695C13.1369 6.13867 12.9479 6.45226 12.833 6.79544C12.6986 7.1674 12.6341 7.56108 12.6428 7.95657C12.6383 8.36453 12.7087 8.76984 12.8503 9.15235C12.9718 9.49761 13.1598 9.81558 13.4037 10.0882C13.6397 10.3487 13.9287 10.5555 14.2511 10.6947C14.5985 10.8523 14.9768 10.9293 15.358 10.92C15.7389 10.9273 16.1168 10.8504 16.4648 10.6947C16.789 10.5496 17.0825 10.3438 17.3295 10.0882C17.5788 9.81651 17.7727 9.4986 17.9002 9.15235C18.0263 8.76634 18.0905 8.36273 18.0905 7.95657Z" fill="#222222"/>
<path d="M34.5374 12.7572H32.2718L30.3868 6.31036H30.3522L28.4671 12.7572H26.1842L23.4863 3.22559H25.9594L27.464 9.56843H27.4986L29.1934 3.22559H31.58L33.2922 9.56843H33.3268L34.8487 3.22559H37.2353L34.5374 12.7572Z" fill="#222222"/>
<path d="M40.6074 12.7572V3.22559H46.989V5.16657H42.8211V6.9689H46.7642V8.8059H42.8211V10.7815H47.2311V12.7399H40.6074V12.7572Z" fill="#222222"/>
<path d="M55.688 12.7572L53.63 8.9792H52.8518V12.7572H50.6035V3.22559H54.2353C54.6827 3.22794 55.1287 3.27438 55.567 3.36423C55.9861 3.44998 56.3851 3.61464 56.743 3.84947C57.0868 4.07261 57.3717 4.37586 57.5731 4.73331C57.793 5.15511 57.9003 5.62676 57.8844 6.1024C57.9039 6.68909 57.7207 7.26454 57.3656 7.73143C56.9885 8.18522 56.4814 8.51192 55.9129 8.66726L58.4032 12.7399H55.688V12.7572ZM55.5843 6.15439C55.5904 5.96573 55.5424 5.77927 55.4459 5.61715C55.3554 5.47772 55.2302 5.36425 55.0827 5.28788C54.9226 5.21535 54.7542 5.16296 54.5812 5.1319C54.404 5.10366 54.2245 5.09206 54.0451 5.09725H52.8172V7.31551H53.9067C54.1038 7.31466 54.3005 7.29727 54.4947 7.26352C54.6815 7.23476 54.8625 7.17625 55.0309 7.09022C55.1898 7.00905 55.3263 6.89003 55.4286 6.74361C55.5388 6.5675 55.593 6.36205 55.5843 6.15439Z" fill="#222222"/>
<path d="M61.7241 12.7572V3.22559H68.1057V5.16657H63.9378V6.9689H67.8809V8.8059H63.9378V10.7815H68.3651V12.7399H61.7241V12.7572Z" fill="#222222"/>
<path d="M80.5919 7.95673C80.6109 8.7058 80.4508 9.44855 80.1249 10.123C79.8381 10.7095 79.4175 11.2201 78.8971 11.6134C78.3875 12.0103 77.8061 12.3045 77.1849 12.4799C76.5562 12.6664 75.9036 12.7599 75.248 12.7572H71.7026V3.22559H75.1442C75.8143 3.2283 76.4818 3.30974 77.133 3.46821C77.7599 3.61317 78.353 3.87796 78.8798 4.24807C79.3985 4.62886 79.8194 5.12784 80.1077 5.7038C80.4362 6.31036 80.5919 7.07289 80.5919 7.95673ZM78.188 7.95673C78.2046 7.49789 78.1158 7.04135 77.9286 6.6223C77.7661 6.28976 77.5294 5.99919 77.2368 5.77312C76.9401 5.561 76.6054 5.40802 76.251 5.32254C75.8771 5.23273 75.4941 5.18622 75.1096 5.1839H73.9682V10.7469H75.0577C75.4594 10.7456 75.8597 10.6991 76.251 10.6082C76.6155 10.5277 76.958 10.368 77.2541 10.1403C77.5557 9.91646 77.7941 9.61786 77.9459 9.27382C78.1203 8.85739 78.2029 8.40811 78.188 7.95673Z" fill="#222222"/>
<path d="M96.8658 9.9844C96.8799 10.4433 96.7725 10.8977 96.5545 11.3015C96.3534 11.6442 96.075 11.935 95.7417 12.1507C95.3818 12.3655 94.9909 12.5233 94.583 12.6186C94.1447 12.7084 93.6987 12.7549 93.2513 12.7572H89.4639V3.22563H93.2513C93.6294 3.22402 94.0064 3.26471 94.3754 3.34695C94.7476 3.4171 95.1046 3.55199 95.4304 3.74554C95.7693 3.9384 96.0476 4.22233 96.234 4.5653C96.4204 4.90826 96.5075 5.29661 96.4853 5.68652C96.5073 6.16383 96.3534 6.63258 96.053 7.00361C95.7559 7.35327 95.3662 7.6116 94.9288 7.74881V7.78347C95.1928 7.82745 95.449 7.90916 95.6898 8.02609C95.9246 8.14189 96.1357 8.30058 96.3124 8.49401C96.4862 8.68894 96.6265 8.91149 96.7275 9.15255C96.8225 9.41941 96.8693 9.70108 96.8658 9.9844ZM94.2544 5.98113C94.2639 5.84082 94.2351 5.70055 94.1712 5.57537C94.1072 5.45019 94.0104 5.34484 93.8912 5.2706C93.6491 5.11462 93.2859 5.0453 92.8017 5.0453H91.6775V7.00361H92.9054C93.2587 7.02448 93.6096 6.93354 93.9085 6.74366C94.1506 6.58769 94.2544 6.32774 94.2544 5.98113ZM94.5657 9.75911C94.5657 9.36052 94.41 9.08323 94.116 8.94459C93.7475 8.77687 93.3443 8.69964 92.94 8.7193H91.6602V10.9029H92.9573C93.143 10.902 93.3281 10.8846 93.5107 10.8509C93.692 10.8222 93.8673 10.7636 94.0296 10.6776C94.1834 10.5959 94.3142 10.4767 94.41 10.331C94.5225 10.1624 94.5771 9.96162 94.5657 9.75911Z" fill="#222222"/>
<path d="M106.084 8.71925V12.7572H103.784V8.71925L100.221 3.22559H103.006L105.029 6.74361L107.052 3.22559H109.733L106.084 8.71925Z" fill="#222222"/>
<path d="M150.596 4.15301C149.744 4.15301 149.295 4.70672 149.076 5.26043L146.578 11.9511L144.126 5.30657C143.896 4.64904 143.424 4.15301 142.549 4.15301C141.674 4.15301 140.972 4.90282 140.972 5.67571C140.977 5.94985 141.035 6.22038 141.145 6.47168L144.644 14.5697C145.001 15.4233 145.6 15.9886 146.475 15.9886H146.647C147.522 15.9886 148.121 15.4118 148.478 14.5697L151.977 6.47168C152.081 6.22669 152.14 5.96479 152.15 5.69879C152.152 5.49438 152.112 5.29173 152.035 5.10273C151.957 4.91372 151.842 4.74218 151.698 4.59817C151.553 4.45417 151.381 4.34062 151.192 4.26417C151.002 4.18773 150.8 4.14993 150.596 4.15301Z" fill="#FEBF10"/>
<path d="M132.327 7.11725H128.574C128.195 7.11725 127.832 7.26796 127.565 7.53621C127.297 7.80447 127.146 8.1683 127.146 8.54767C127.147 8.73431 127.184 8.91901 127.256 9.09107C127.329 9.26312 127.434 9.41912 127.567 9.55001C127.7 9.68091 127.857 9.78411 128.03 9.85363C128.203 9.92315 128.388 9.95762 128.574 9.95502H130.796V12.0891C129.967 12.689 128.896 12.9889 127.699 12.9889C125.051 12.9889 123.175 10.9817 123.175 8.24774V8.2016C123.175 5.66376 125.074 3.5412 127.457 3.5412C128.862 3.5412 129.829 3.92188 130.715 4.56787C130.999 4.79609 131.353 4.91843 131.717 4.91394C131.93 4.91425 132.141 4.87238 132.338 4.79075C132.535 4.70912 132.714 4.58931 132.865 4.43822C133.016 4.28712 133.135 4.1077 133.217 3.91022C133.298 3.71274 133.34 3.5011 133.34 3.28741C133.339 3.0283 133.277 2.77306 133.159 2.54251C133.041 2.31196 132.87 2.11264 132.661 1.96081C131.314 1.01489 129.829 0.507324 127.561 0.507324C123.037 0.507324 119.733 3.99109 119.733 8.24774V8.29389C119.733 12.712 122.933 15.9882 127.584 15.9882C129.431 15.9859 131.242 15.4665 132.81 14.4885C133.605 14.0156 133.961 13.358 133.961 12.389V8.75531C133.963 8.5399 133.921 8.32641 133.839 8.12719C133.757 7.92797 133.637 7.74696 133.485 7.59464C133.333 7.44232 133.152 7.3217 132.954 7.23976C132.755 7.15782 132.542 7.11618 132.327 7.11725Z" fill="#FEBF10"/>
<path d="M137.806 0.0229492C136.782 0.0229492 135.999 0.599732 135.999 1.54565V1.5918C135.999 2.53772 136.793 3.12604 137.806 3.12604C138.819 3.12604 139.614 2.52619 139.614 1.5918V1.54565C139.625 0.599732 138.831 0.0229492 137.806 0.0229492Z" fill="#FEBF10"/>
<path d="M158.263 4.06055H158.228C154.913 4.07208 152.61 6.75989 152.61 10.0245V10.0706C152.61 13.4506 154.982 15.8269 158.228 15.9884C158.343 15.9884 158.458 15.9999 158.585 15.9999C160.254 15.9999 161.555 15.4578 162.557 14.6041C162.69 14.4833 162.797 14.3356 162.871 14.1707C162.944 14.0058 162.982 13.8272 162.982 13.6467C162.988 13.4789 162.96 13.3117 162.899 13.1553C162.839 12.9988 162.747 12.8563 162.629 12.7366C162.512 12.6168 162.371 12.5222 162.216 12.4585C162.061 12.3949 161.895 12.3635 161.728 12.3662C161.441 12.3544 161.16 12.4443 160.933 12.62C160.275 13.1299 159.463 13.4022 158.631 13.3929C158.493 13.3929 158.366 13.3813 158.24 13.3698C156.996 13.2429 156.133 12.4816 155.845 11.1434H162.257C163.109 11.1434 163.777 10.5205 163.777 9.58612C163.765 7.20978 162.073 4.06055 158.263 4.06055ZM158.228 9.11316H155.788C156.041 7.64813 156.904 6.69068 158.228 6.67914H158.263C159.633 6.67914 160.484 7.65967 160.669 9.11316H158.228Z" fill="#FEBF10"/>
<path d="M137.807 4.15284C137.594 4.15253 137.382 4.1944 137.185 4.27603C136.988 4.35766 136.809 4.47747 136.658 4.62856C136.508 4.77966 136.388 4.95908 136.307 5.15656C136.225 5.35404 136.183 5.56568 136.184 5.77937V14.235C136.184 14.6664 136.355 15.0801 136.659 15.3851C136.963 15.6902 137.376 15.8615 137.807 15.8615C138.237 15.8615 138.65 15.6902 138.954 15.3851C139.259 15.0801 139.43 14.6664 139.43 14.235V5.76783C139.428 5.33807 139.256 4.92661 138.952 4.6238C138.647 4.321 138.236 4.15161 137.807 4.15284Z" fill="#FEBF10"/>
<path d="M225.388 4.15283C224.432 4.15283 223.661 5.1795 223.189 6.28693V5.77936C223.189 5.34798 223.018 4.93427 222.714 4.62923C222.409 4.3242 221.997 4.15283 221.566 4.15283C221.136 4.15283 220.723 4.3242 220.418 4.62923C220.114 4.93427 219.943 5.34798 219.943 5.77936V14.235C219.943 14.6664 220.114 15.0801 220.418 15.3851C220.723 15.6901 221.136 15.8615 221.566 15.8615C221.997 15.8615 222.409 15.6901 222.714 15.3851C223.018 15.0801 223.189 14.6664 223.189 14.235V11.2011C223.189 8.89399 224.11 7.6366 225.745 7.24439C226.401 7.09443 226.965 6.58686 226.965 5.72168C226.965 4.81037 226.389 4.15283 225.388 4.15283Z" fill="#FEBF10"/>
<path d="M212.702 4.06055H212.668C209.352 4.07208 207.05 6.75989 207.05 10.0245V10.0706C207.05 13.4506 209.421 15.8269 212.668 15.9884C212.783 15.9884 212.898 15.9999 213.024 15.9999C214.694 15.9999 215.994 15.4578 216.996 14.6041C217.13 14.4833 217.237 14.3356 217.31 14.1707C217.384 14.0058 217.422 13.8272 217.422 13.6467C217.428 13.4789 217.399 13.3117 217.339 13.1553C217.278 12.9988 217.186 12.8563 217.069 12.7366C216.951 12.6168 216.811 12.5222 216.656 12.4585C216.501 12.3949 216.335 12.3635 216.167 12.3662C215.881 12.3544 215.599 12.4443 215.373 12.62C214.714 13.1299 213.903 13.4022 213.07 13.3929C212.932 13.3929 212.806 13.3813 212.679 13.3698C211.436 13.2429 210.572 12.4816 210.285 11.1434H216.697C217.549 11.1434 218.216 10.5205 218.216 9.58612C218.205 7.20978 216.524 4.06055 212.702 4.06055ZM212.679 9.11316H210.239C210.492 7.64813 211.355 6.69068 212.679 6.67914H212.714C214.083 6.67914 214.935 7.65967 215.12 9.11316H212.679Z" fill="#FEBF10"/>
<path d="M205.024 7.05987C205.39 7.05987 205.741 6.91403 206 6.65443C206.259 6.39483 206.405 6.04273 206.405 5.6756C206.405 5.30846 206.259 4.95637 206 4.69676C205.741 4.43716 205.39 4.29132 205.024 4.29132H203.596V2.8609C203.596 2.42952 203.425 2.01581 203.121 1.71078C202.816 1.40574 202.403 1.23438 201.973 1.23438C201.542 1.23438 201.13 1.40574 200.825 1.71078C200.521 2.01581 200.35 2.42952 200.35 2.8609V4.29132H200.246C199.88 4.29132 199.528 4.43716 199.269 4.69676C199.01 4.95637 198.865 5.30846 198.865 5.6756C198.865 6.04273 199.01 6.39483 199.269 6.65443C199.528 6.91403 199.88 7.05987 200.246 7.05987H200.35V12.4932C200.35 15.1464 201.697 15.9423 203.677 15.9423C204.31 15.9622 204.941 15.8523 205.53 15.6193C205.774 15.5209 205.983 15.3521 206.13 15.1343C206.278 14.9166 206.357 14.6598 206.359 14.3965C206.356 14.0393 206.214 13.6974 205.962 13.4449C205.71 13.1923 205.368 13.0493 205.012 13.0469C204.943 13.0469 204.736 13.0699 204.632 13.0699C203.907 13.0699 203.585 12.7123 203.585 11.9625V7.07141H205.024V7.05987Z" fill="#FEBF10"/>
<path d="M187.917 4.15284C187.704 4.15253 187.493 4.1944 187.296 4.27603C187.099 4.35766 186.92 4.47747 186.769 4.62856C186.618 4.77966 186.499 4.95908 186.417 5.15656C186.336 5.35404 186.294 5.56568 186.294 5.77937V10.6705C186.294 12.2047 185.5 13.0007 184.268 13.0007C183.036 13.0007 182.311 12.2047 182.311 10.6705V5.77937C182.311 5.34799 182.14 4.93427 181.836 4.62924C181.531 4.32421 181.119 4.15284 180.688 4.15284C180.258 4.15284 179.845 4.32421 179.54 4.62924C179.236 4.93427 179.065 5.34799 179.065 5.77937V11.6972C179.065 14.3273 180.492 15.9538 182.944 15.9538C184.591 15.9538 185.546 15.0771 186.294 14.1081V14.235C186.294 14.6664 186.465 15.0801 186.77 15.3851C187.074 15.6902 187.487 15.8615 187.917 15.8615C188.348 15.8615 188.761 15.6902 189.065 15.3851C189.37 15.0801 189.541 14.6664 189.541 14.235V5.76783C189.539 5.33807 189.367 4.92661 189.063 4.6238C188.758 4.321 188.346 4.15161 187.917 4.15284Z" fill="#FEBF10"/>
<path d="M172.296 4.06055C172.022 4.05921 171.748 4.08238 171.478 4.12977C170.247 4.33741 169.395 5.04108 168.739 5.91779V1.62653C168.739 1.19515 168.568 0.781434 168.263 0.476402C167.959 0.171369 167.546 0 167.115 0C166.685 0 166.272 0.171369 165.968 0.476402C165.663 0.781434 165.492 1.19515 165.492 1.62653V14.235C165.489 14.6664 165.657 15.0813 165.959 15.3885C166.262 15.6957 166.673 15.87 167.104 15.8731C167.534 15.8761 167.948 15.7077 168.255 15.4048C168.562 15.1019 168.735 14.6894 168.739 14.2581V14.235C169.372 14.9963 170.224 15.6769 171.478 15.8846C171.748 15.932 172.022 15.9551 172.296 15.9538C175.001 15.9538 177.499 13.8543 177.499 10.036V9.98987C177.51 6.16004 174.966 4.06055 172.296 4.06055ZM174.264 10.0245C174.264 11.9394 172.986 13.1852 171.478 13.1852H171.467C169.947 13.1852 168.692 11.9279 168.692 10.0245V9.97833C168.692 8.07495 169.947 6.81757 171.467 6.81757H171.478C172.986 6.82911 174.264 8.08649 174.264 9.97833V10.0245Z" fill="#FEBF10"/>
<path d="M196.908 7.05987C197.274 7.05987 197.626 6.91403 197.885 6.65443C198.144 6.39483 198.289 6.04273 198.289 5.6756C198.289 5.30846 198.144 4.95637 197.885 4.69676C197.626 4.43716 197.274 4.29132 196.908 4.29132H195.48V2.8609C195.48 2.42952 195.309 2.01581 195.005 1.71078C194.701 1.40574 194.288 1.23438 193.857 1.23438C193.427 1.23438 193.014 1.40574 192.709 1.71078C192.405 2.01581 192.234 2.42952 192.234 2.8609V4.29132H192.13C191.764 4.29132 191.413 4.43716 191.154 4.69676C190.895 4.95637 190.749 5.30846 190.749 5.6756C190.749 6.04273 190.895 6.39483 191.154 6.65443C191.413 6.91403 191.764 7.05987 192.13 7.05987H192.234V12.4932C192.234 15.1464 193.581 15.9423 195.561 15.9423C196.194 15.9622 196.825 15.8523 197.414 15.6193C197.658 15.5209 197.867 15.3521 198.014 15.1343C198.162 14.9166 198.242 14.6598 198.243 14.3965C198.241 14.0393 198.098 13.6974 197.846 13.4449C197.594 13.1923 197.253 13.0493 196.896 13.0469C196.827 13.0469 196.62 13.0699 196.516 13.0699C195.791 13.0699 195.469 12.7123 195.469 11.9625V7.07141H196.908V7.05987Z" fill="#FEBF10"/>
</svg>
